<svg height='300px' width='300px'  fill="#000000" xmlns="http://www.w3.org/2000/svg" xmlns:xlink="http://www.w3.org/1999/xlink" version="1.1" x="0px" y="0px" viewBox="0 0 100 100" enable-background="new 0 0 100 100" xml:space="preserve"><path d="M95.845,59.482c0.675-0.208,1.39,0.171,1.599,0.845c0.207,0.676-0.17,1.392-0.845,1.6  c-5.289,1.529-11.653,3.937-16.649,5.584c-6.123,2.018-12.88,3.146-18.928,0.361c-2.02-0.931-3.872-2.269-5.887-3.234  c-2.032-0.974-4.145-1.774-6.331-2.326c-4.609-1.163-9.406-1.194-14.113-0.733c-8.023,0.785-15.988,2.713-23.712,4.987  c-2.313,0.682-4.589,1.57-6.915,2.19c-0.688,0.157-1.375-0.274-1.531-0.963c-0.157-0.688,0.273-1.374,0.962-1.532  c5.675-1.557,11.188-3.942,16.259-6.911c4.863-2.848,9.596-6.118,13.635-10.068c6.057-5.923,10.582-14.009,18.749-17.379  c1.485-0.613,3.199-1.171,4.805-1.342c10.387-1.102,18.062,7.486,18.25,17.89c0.043,0.654-0.451,1.221-1.105,1.265  c-0.373,0.025-0.719-0.125-0.953-0.381c-1.646-1.552-3.862-2.505-6.304-2.505c-5.591,0-9.198,4.119-9.198,9.199  c0,4.987,4.467,9.396,12.054,9.396C77.96,65.423,90.455,61.169,95.845,59.482z"></path></svg>